<?xml version="1.0" standalone="no"?>
<!DOCTYPE svg PUBLIC "-//W3C//DTD SVG 20010904//EN" "http://www.w3.org/TR/2001/REC-SVG-20010904/DTD/svg10.dtd">
<svg version="1.0" xmlns="http://www.w3.org/2000/svg"
	width="860.000000pt" height="628.000000pt" viewBox="0 0 860.000000 628.000000"
	preserveAspectRatio="xMidYMid meet">

	<g transform="translate(0.000000,628.000000) scale(0.100000,-0.100000)"
		fill="#000000" stroke="none">
		<path
			d="M6855 5236 c-280 -78 -590 -164 -687 -191 -114 -31 -178 -53 -178
-61 0 -15 107 -400 114 -413 3 -4 115 22 248 60 134 37 244 67 245 65 5 -5
-2320 -2787 -2327 -2784 -5 2 -309 382 -675 846 -367 463 -670 842 -674 842
-3 0 -260 -293 -571 -652 -311 -358 -699 -807 -864 -996 -244 -282 -296 -346
-285 -356 85 -76 318 -276 323 -276 2 0 104 114 225 254 121 140 226 260 233
267 8 8 218 249 468 537 434 501 454 522 471 505 9 -10 313 -391 674 -848 361
-456 662 -831 668 -832 7 -1 613 719 1347 1602 l1335 1603 3 -247 2 -248 223
5 c122 2 223 5 224 6 5 4 -21 1456 -26 1455 -3 0 -235 -65 -516 -143z" />
	</g>
</svg>